<?xml version="1.0" standalone="no"?>
<svg xmlns:xlink="http://www.w3.org/1999/xlink" id="wave" style="transform:rotate(0deg); transition: 0.3s" viewBox="0 0 1440 490" version="1.1" xmlns="http://www.w3.org/2000/svg"><defs><linearGradient id="sw-gradient-0" x1="0" x2="0" y1="1" y2="0"><stop stop-color="rgba(215, 178, 75, 1)" offset="0%"/><stop stop-color="rgba(248.49, 205.421, 110.216, 1)" offset="100%"/></linearGradient></defs><path style="transform:translate(0, 0px); opacity:1" fill="url(#sw-gradient-0)" d="M0,441L60,375.7C120,310,240,180,360,147C480,114,600,180,720,236.8C840,294,960,343,1080,334.8C1200,327,1320,261,1440,196C1560,131,1680,65,1800,57.2C1920,49,2040,98,2160,163.3C2280,229,2400,310,2520,334.8C2640,359,2760,327,2880,302.2C3000,278,3120,261,3240,228.7C3360,196,3480,147,3600,106.2C3720,65,3840,33,3960,49C4080,65,4200,131,4320,147C4440,163,4560,131,4680,171.5C4800,212,4920,327,5040,375.7C5160,425,5280,408,5400,383.8C5520,359,5640,327,5760,269.5C5880,212,6000,131,6120,147C6240,163,6360,278,6480,302.2C6600,327,6720,261,6840,245C6960,229,7080,261,7200,269.5C7320,278,7440,261,7560,261.3C7680,261,7800,278,7920,310.3C8040,343,8160,392,8280,359.3C8400,327,8520,212,8580,155.2L8640,98L8640,490L8580,490C8520,490,8400,490,8280,490C8160,490,8040,490,7920,490C7800,490,7680,490,7560,490C7440,490,7320,490,7200,490C7080,490,6960,490,6840,490C6720,490,6600,490,6480,490C6360,490,6240,490,6120,490C6000,490,5880,490,5760,490C5640,490,5520,490,5400,490C5280,490,5160,490,5040,490C4920,490,4800,490,4680,490C4560,490,4440,490,4320,490C4200,490,4080,490,3960,490C3840,490,3720,490,3600,490C3480,490,3360,490,3240,490C3120,490,3000,490,2880,490C2760,490,2640,490,2520,490C2400,490,2280,490,2160,490C2040,490,1920,490,1800,490C1680,490,1560,490,1440,490C1320,490,1200,490,1080,490C960,490,840,490,720,490C600,490,480,490,360,490C240,490,120,490,60,490L0,490Z"/></svg>