<svg id="visual" viewBox="0 0 900 600" width="900" height="600" xmlns="http://www.w3.org/2000/svg" xmlns:xlink="http://www.w3.org/1999/xlink" version="1.1"><rect x="0" y="0" width="900" height="600" fill="#2d2925"></rect><g transform="translate(449.9925143198941 320.76431192970546)"><path d="M136.5 -235.9C175.3 -214 204.1 -174.2 227.2 -132C250.3 -89.7 267.7 -44.8 257 -6.2C246.3 32.5 207.6 65 179.6 98.8C151.6 132.5 134.3 167.6 106.1 184.3C78 201.1 39 199.5 -4 206.5C-47 213.4 -94 228.8 -131.7 217.6C-169.3 206.3 -197.7 168.4 -222.4 127.7C-247 87 -268 43.5 -257.4 6.1C-246.8 -31.3 -204.6 -62.5 -181.4 -105.8C-158.3 -149.1 -154.1 -204.5 -127.1 -233.2C-100 -261.9 -50 -263.9 -0.6 -262.9C48.8 -261.9 97.7 -257.8 136.5 -235.9" fill="#ffcb77"></path></g></svg>