<svg id="visual" viewBox="0 0 900 600" width="900" height="600" xmlns="http://www.w3.org/2000/svg" xmlns:xlink="http://www.w3.org/1999/xlink" version="1.1"><rect x="0" y="0" width="900" height="600" fill="#ede7d9"></rect><defs><linearGradient id="grad1_0" x1="33.3%" y1="0%" x2="100%" y2="100%"><stop offset="20%" stop-color="#ffcb77" stop-opacity="1"></stop><stop offset="80%" stop-color="#ffcb77" stop-opacity="1"></stop></linearGradient></defs><defs><linearGradient id="grad1_1" x1="33.3%" y1="0%" x2="100%" y2="100%"><stop offset="20%" stop-color="#ffcb77" stop-opacity="1"></stop><stop offset="80%" stop-color="#f5daa8" stop-opacity="1"></stop></linearGradient></defs><defs><linearGradient id="grad1_2" x1="33.3%" y1="0%" x2="100%" y2="100%"><stop offset="20%" stop-color="#ede7d9" stop-opacity="1"></stop><stop offset="80%" stop-color="#f5daa8" stop-opacity="1"></stop></linearGradient></defs><defs><linearGradient id="grad2_0" x1="0%" y1="0%" x2="66.7%" y2="100%"><stop offset="20%" stop-color="#ffcb77" stop-opacity="1"></stop><stop offset="80%" stop-color="#ffcb77" stop-opacity="1"></stop></linearGradient></defs><defs><linearGradient id="grad2_1" x1="0%" y1="0%" x2="66.7%" y2="100%"><stop offset="20%" stop-color="#f5daa8" stop-opacity="1"></stop><stop offset="80%" stop-color="#ffcb77" stop-opacity="1"></stop></linearGradient></defs><defs><linearGradient id="grad2_2" x1="0%" y1="0%" x2="66.7%" y2="100%"><stop offset="20%" stop-color="#f5daa8" stop-opacity="1"></stop><stop offset="80%" stop-color="#ede7d9" stop-opacity="1"></stop></linearGradient></defs><g transform="translate(900, 0)"><path d="M0 324.5C-48.4 302.1 -96.8 279.7 -147.5 255.5C-198.2 231.2 -251.1 205.1 -281 162.2C-310.9 119.4 -317.7 59.7 -324.5 0L0 0Z" fill="#f1e1c0"></path><path d="M0 216.3C-32.3 201.4 -64.5 186.5 -98.3 170.3C-132.1 154.2 -167.4 136.8 -187.3 108.2C-207.3 79.6 -211.8 39.8 -216.3 0L0 0Z" fill="#fad38f"></path><path d="M0 108.2C-16.1 100.7 -32.3 93.2 -49.2 85.2C-66.1 77.1 -83.7 68.4 -93.7 54.1C-103.6 39.8 -105.9 19.9 -108.2 0L0 0Z" fill="#ffcb77"></path></g><g transform="translate(0, 600)"><path d="M0 -324.5C57.7 -316.6 115.4 -308.6 162.2 -281C209.1 -253.4 245 -206.1 270.2 -156C295.4 -105.9 310 -52.9 324.5 0L0 0Z" fill="#f1e1c0"></path><path d="M0 -216.3C38.5 -211 77 -205.8 108.2 -187.3C139.4 -168.9 163.3 -137.4 180.1 -104C196.9 -70.6 206.6 -35.3 216.3 0L0 0Z" fill="#fad38f"></path><path d="M0 -108.2C19.2 -105.5 38.5 -102.9 54.1 -93.7C69.7 -84.5 81.7 -68.7 90.1 -52C98.5 -35.3 103.3 -17.6 108.2 0L0 0Z" fill="#ffcb77"></path></g></svg>