<svg id="visual" viewBox="0 0 900 600" width="900" height="600" xmlns="http://www.w3.org/2000/svg" xmlns:xlink="http://www.w3.org/1999/xlink" version="1.1"><path d="M0 363L21.5 370.2C43 377.3 86 391.7 128.8 398.8C171.7 406 214.3 406 257.2 403.3C300 400.7 343 395.3 385.8 399.7C428.7 404 471.3 418 514.2 413.8C557 409.7 600 387.3 642.8 378.3C685.7 369.3 728.3 373.7 771.2 387.5C814 401.3 857 424.7 878.5 436.3L900 448L900 601L878.5 601C857 601 814 601 771.2 601C728.3 601 685.7 601 642.8 601C600 601 557 601 514.2 601C471.3 601 428.7 601 385.8 601C343 601 300 601 257.2 601C214.3 601 171.7 601 128.8 601C86 601 43 601 21.5 601L0 601Z" fill="#a3ffd2"></path><path d="M0 442L21.5 436.7C43 431.3 86 420.7 128.8 417.3C171.7 414 214.3 418 257.2 420.8C300 423.7 343 425.3 385.8 422.3C428.7 419.3 471.3 411.7 514.2 413C557 414.3 600 424.7 642.8 431C685.7 437.3 728.3 439.7 771.2 441.5C814 443.3 857 444.7 878.5 445.3L900 446L900 601L878.5 601C857 601 814 601 771.2 601C728.3 601 685.7 601 642.8 601C600 601 557 601 514.2 601C471.3 601 428.7 601 385.8 601C343 601 300 601 257.2 601C214.3 601 171.7 601 128.8 601C86 601 43 601 21.5 601L0 601Z" fill="#8cffc6"></path><path d="M0 484L21.5 487.2C43 490.3 86 496.7 128.8 490.2C171.7 483.7 214.3 464.3 257.2 463.8C300 463.3 343 481.7 385.8 484C428.7 486.3 471.3 472.7 514.2 463.7C557 454.7 600 450.3 642.8 456.3C685.7 462.3 728.3 478.7 771.2 487.5C814 496.3 857 497.7 878.5 498.3L900 499L900 601L878.5 601C857 601 814 601 771.2 601C728.3 601 685.7 601 642.8 601C600 601 557 601 514.2 601C471.3 601 428.7 601 385.8 601C343 601 300 601 257.2 601C214.3 601 171.7 601 128.8 601C86 601 43 601 21.5 601L0 601Z" fill="#74ffb9"></path><path d="M0 543L21.5 535.5C43 528 86 513 128.8 505.2C171.7 497.3 214.3 496.7 257.2 494C300 491.3 343 486.7 385.8 492.3C428.7 498 471.3 514 514.2 515.3C557 516.7 600 503.3 642.8 504C685.7 504.7 728.3 519.3 771.2 521.5C814 523.7 857 513.3 878.5 508.2L900 503L900 601L878.5 601C857 601 814 601 771.2 601C728.3 601 685.7 601 642.8 601C600 601 557 601 514.2 601C471.3 601 428.7 601 385.8 601C343 601 300 601 257.2 601C214.3 601 171.7 601 128.8 601C86 601 43 601 21.5 601L0 601Z" fill="#66f3a9"></path><path d="M0 554L21.5 553.2C43 552.3 86 550.7 128.8 546.8C171.7 543 214.3 537 257.2 539C300 541 343 551 385.8 550.7C428.7 550.3 471.3 539.7 514.2 537.8C557 536 600 543 642.8 546.3C685.7 549.7 728.3 549.3 771.2 546.8C814 544.3 857 539.7 878.5 537.3L900 535L900 601L878.5 601C857 601 814 601 771.2 601C728.3 601 685.7 601 642.8 601C600 601 557 601 514.2 601C471.3 601 428.7 601 385.8 601C343 601 300 601 257.2 601C214.3 601 171.7 601 128.8 601C86 601 43 601 21.5 601L0 601Z" fill="#57e89a"></path></svg>