<?xml version="1.0" encoding="utf-8"?>
<!-- Generator: Adobe Illustrator 25.0.0, SVG Export Plug-In . SVG Version: 6.00 Build 0)  -->
<svg version="1.1" id="visual" xmlns="http://www.w3.org/2000/svg" xmlns:xlink="http://www.w3.org/1999/xlink" x="0px" y="0px"
	 viewBox="0 0 900 600" style="enable-background:new 0 0 900 600;" xml:space="preserve">
<style type="text/css">
	.st0{fill:#E8AE54;}
	.st1{fill:#F4BC65;}
	.st2{fill:#FFCB77;}
	.st3{fill:#FFD48C;}
	.st4{fill:#FFDCA1;}
</style>
<path class="st0" d="M0,363l21.5,7.2c21.5,7.1,64.5,21.5,107.3,28.6c42.9,7.2,85.5,7.2,128.4,4.5c42.8-2.6,85.8-8,128.6-3.6
	c42.9,4.3,85.5,18.3,128.4,14.1c42.8-4.1,85.8-26.5,128.6-35.5c42.9-9,85.5-4.6,128.4,9.2c42.8,13.8,85.8,37.2,107.3,48.8L900,448
	v153h-21.5c-21.5,0-64.5,0-107.3,0c-42.9,0-85.5,0-128.4,0c-42.8,0-85.8,0-128.6,0c-42.9,0-85.5,0-128.4,0c-42.8,0-85.8,0-128.6,0
	c-42.9,0-85.5,0-128.4,0c-42.8,0-85.8,0-107.3,0H0V363z"/>
<path class="st1" d="M0,442l21.5-5.3c21.5-5.4,64.5-16,107.3-19.4c42.9-3.3,85.5,0.7,128.4,3.5c42.8,2.9,85.8,4.5,128.6,1.5
	c42.9-3,85.5-10.6,128.4-9.3c42.8,1.3,85.8,11.7,128.6,18c42.9,6.3,85.5,8.7,128.4,10.5c42.8,1.8,85.8,3.2,107.3,3.8L900,446v155
	h-21.5c-21.5,0-64.5,0-107.3,0c-42.9,0-85.5,0-128.4,0c-42.8,0-85.8,0-128.6,0c-42.9,0-85.5,0-128.4,0c-42.8,0-85.8,0-128.6,0
	c-42.9,0-85.5,0-128.4,0c-42.8,0-85.8,0-107.3,0H0V442z"/>
<path class="st2" d="M0,484l21.5,3.2c21.5,3.1,64.5,9.5,107.3,3c42.9-6.5,85.5-25.9,128.4-26.4c42.8-0.5,85.8,17.9,128.6,20.2
	c42.9,2.3,85.5-11.3,128.4-20.3c42.8-9,85.8-13.4,128.6-7.4c42.9,6,85.5,22.4,128.4,31.2c42.8,8.8,85.8,10.2,107.3,10.8L900,499v102
	h-21.5c-21.5,0-64.5,0-107.3,0c-42.9,0-85.5,0-128.4,0c-42.8,0-85.8,0-128.6,0c-42.9,0-85.5,0-128.4,0c-42.8,0-85.8,0-128.6,0
	c-42.9,0-85.5,0-128.4,0c-42.8,0-85.8,0-107.3,0H0V484z"/>
<path class="st3" d="M0,543l21.5-7.5C43,528,86,513,128.8,505.2c42.9-7.9,85.5-8.5,128.4-11.2c42.8-2.7,85.8-7.3,128.6-1.7
	c42.9,5.7,85.5,21.7,128.4,23c42.8,1.4,85.8-12,128.6-11.3c42.9,0.7,85.5,15.3,128.4,17.5c42.8,2.2,85.8-8.2,107.3-13.3L900,503v98
	h-21.5c-21.5,0-64.5,0-107.3,0c-42.9,0-85.5,0-128.4,0c-42.8,0-85.8,0-128.6,0c-42.9,0-85.5,0-128.4,0c-42.8,0-85.8,0-128.6,0
	c-42.9,0-85.5,0-128.4,0c-42.8,0-85.8,0-107.3,0H0V543z"/>
<path class="st4" d="M0,554l21.5-0.8c21.5-0.9,64.5-2.5,107.3-6.4c42.9-3.8,85.5-9.8,128.4-7.8c42.8,2,85.8,12,128.6,11.7
	c42.9-0.4,85.5-11,128.4-12.9c42.8-1.8,85.8,5.2,128.6,8.5c42.9,3.4,85.5,3,128.4,0.5c42.8-2.5,85.8-7.1,107.3-9.5L900,535v66h-21.5
	c-21.5,0-64.5,0-107.3,0c-42.9,0-85.5,0-128.4,0c-42.8,0-85.8,0-128.6,0c-42.9,0-85.5,0-128.4,0c-42.8,0-85.8,0-128.6,0
	c-42.9,0-85.5,0-128.4,0c-42.8,0-85.8,0-107.3,0H0V554z"/>
</svg>
