<svg id="visual" viewBox="0 0 960 540" width="960" height="540" xmlns="http://www.w3.org/2000/svg" xmlns:xlink="http://www.w3.org/1999/xlink" version="1.1"><path d="M0 425L16 429C32 433 64 441 96 443.3C128 445.7 160 442.3 192 442.8C224 443.3 256 447.7 288 446C320 444.3 352 436.7 384 437.7C416 438.7 448 448.3 480 450C512 451.7 544 445.3 576 439.8C608 434.3 640 429.7 672 430.2C704 430.7 736 436.3 768 441.2C800 446 832 450 864 452.3C896 454.7 928 455.3 944 455.7L960 456L960 541L944 541C928 541 896 541 864 541C832 541 800 541 768 541C736 541 704 541 672 541C640 541 608 541 576 541C544 541 512 541 480 541C448 541 416 541 384 541C352 541 320 541 288 541C256 541 224 541 192 541C160 541 128 541 96 541C64 541 32 541 16 541L0 541Z" fill="#57e89a"></path><path d="M0 445L16 447.5C32 450 64 455 96 455C128 455 160 450 192 449.3C224 448.7 256 452.3 288 457.5C320 462.7 352 469.3 384 471C416 472.7 448 469.3 480 464.3C512 459.3 544 452.7 576 450.2C608 447.7 640 449.3 672 451.7C704 454 736 457 768 460.3C800 463.7 832 467.3 864 466.2C896 465 928 459 944 456L960 453L960 541L944 541C928 541 896 541 864 541C832 541 800 541 768 541C736 541 704 541 672 541C640 541 608 541 576 541C544 541 512 541 480 541C448 541 416 541 384 541C352 541 320 541 288 541C256 541 224 541 192 541C160 541 128 541 96 541C64 541 32 541 16 541L0 541Z" fill="#66f3a9"></path><path d="M0 482L16 480.8C32 479.7 64 477.3 96 476.5C128 475.7 160 476.3 192 476.3C224 476.3 256 475.7 288 477.8C320 480 352 485 384 487.3C416 489.7 448 489.3 480 486C512 482.7 544 476.3 576 473.8C608 471.3 640 472.7 672 473.8C704 475 736 476 768 478C800 480 832 483 864 484.7C896 486.3 928 486.7 944 486.8L960 487L960 541L944 541C928 541 896 541 864 541C832 541 800 541 768 541C736 541 704 541 672 541C640 541 608 541 576 541C544 541 512 541 480 541C448 541 416 541 384 541C352 541 320 541 288 541C256 541 224 541 192 541C160 541 128 541 96 541C64 541 32 541 16 541L0 541Z" fill="#74ffb9"></path><path d="M0 500L16 499.7C32 499.3 64 498.7 96 498.5C128 498.3 160 498.7 192 497.2C224 495.7 256 492.3 288 492.7C320 493 352 497 384 499.5C416 502 448 503 480 503.3C512 503.7 544 503.3 576 500C608 496.7 640 490.3 672 489.2C704 488 736 492 768 494C800 496 832 496 864 496C896 496 928 496 944 496L960 496L960 541L944 541C928 541 896 541 864 541C832 541 800 541 768 541C736 541 704 541 672 541C640 541 608 541 576 541C544 541 512 541 480 541C448 541 416 541 384 541C352 541 320 541 288 541C256 541 224 541 192 541C160 541 128 541 96 541C64 541 32 541 16 541L0 541Z" fill="#8cffc6"></path><path d="M0 508L16 508.5C32 509 64 510 96 511.7C128 513.3 160 515.7 192 516.2C224 516.7 256 515.3 288 513.8C320 512.3 352 510.7 384 511.3C416 512 448 515 480 514.7C512 514.3 544 510.7 576 510C608 509.3 640 511.7 672 512.8C704 514 736 514 768 514.8C800 515.7 832 517.3 864 517.2C896 517 928 515 944 514L960 513L960 541L944 541C928 541 896 541 864 541C832 541 800 541 768 541C736 541 704 541 672 541C640 541 608 541 576 541C544 541 512 541 480 541C448 541 416 541 384 541C352 541 320 541 288 541C256 541 224 541 192 541C160 541 128 541 96 541C64 541 32 541 16 541L0 541Z" fill="#a3ffd2"></path></svg>