<svg id="visual" viewBox="0 0 900 600" width="900" height="600" xmlns="http://www.w3.org/2000/svg" xmlns:xlink="http://www.w3.org/1999/xlink" version="1.1"><rect x="0" y="0" width="900" height="600" fill="#2d2925"></rect><path d="M0 342L37.5 360.8C75 379.7 150 417.3 225 418C300 418.7 375 382.3 450 367.8C525 353.3 600 360.7 675 375.5C750 390.3 825 412.7 862.5 423.8L900 435L900 601L862.5 601C825 601 750 601 675 601C600 601 525 601 450 601C375 601 300 601 225 601C150 601 75 601 37.5 601L0 601Z" fill="#ffcb77" stroke-linecap="round" stroke-linejoin="miter"></path></svg>