<svg id="visual" viewBox="0 0 900 600" width="900" height="600" xmlns="http://www.w3.org/2000/svg" xmlns:xlink="http://www.w3.org/1999/xlink" version="1.1"><rect x="0" y="0" width="900" height="600" fill="#2d2925"></rect><path d="M0 463L30 454.8C60 446.7 120 430.3 180 415.2C240 400 300 386 360 375.3C420 364.7 480 357.3 540 359C600 360.7 660 371.3 720 394.3C780 417.3 840 452.7 870 470.3L900 488L900 601L870 601C840 601 780 601 720 601C660 601 600 601 540 601C480 601 420 601 360 601C300 601 240 601 180 601C120 601 60 601 30 601L0 601Z" fill="#ffcb77" stroke-linecap="round" stroke-linejoin="miter"></path></svg>